<svg id="noun-bell-1020527" xmlns="http://www.w3.org/2000/svg" width="30.482" height="31.969" viewBox="0 0 30.482 31.969">
  <path id="Path_1838" data-name="Path 1838" d="M130.065,33.59a2.488,2.488,0,0,0-1.453.6,2.434,2.434,0,0,0-.783,1.839v.953a8.105,8.105,0,0,0-4.189,2.407,9.261,9.261,0,0,0-2.248,6.312,17.61,17.61,0,0,1-5.914,13.168,1.39,1.39,0,0,0-.3,1.578,2.117,2.117,0,0,0,.976.874,11.883,11.883,0,0,0,3.337.942,57.769,57.769,0,0,0,7.106.647,3.9,3.9,0,0,0,7.379,0,57.851,57.851,0,0,0,6.834-.613,13.111,13.111,0,0,0,3.462-.942,2.43,2.43,0,0,0,1.033-.817,1.35,1.35,0,0,0-.091-1.623A17.6,17.6,0,0,1,139.249,45.7,9.261,9.261,0,0,0,137,39.391a8.12,8.12,0,0,0-4.246-2.418v-.942a2.436,2.436,0,0,0-.783-1.839,2.522,2.522,0,0,0-1.68-.6c-.074,0-.153-.006-.227,0Zm.227,1.453a1.1,1.1,0,0,1,.715.25.87.87,0,0,1,.3.738v.726c-.321-.027-.65-.045-.988-.045a.692.692,0,0,0-.08,0c-.326,0-.644.018-.954.045V36.03a.894.894,0,0,1,.3-.749,1.094,1.094,0,0,1,.715-.238Zm-.023,3.122h.045a7.223,7.223,0,0,1,5.608,2.2A7.819,7.819,0,0,1,137.8,45.7a19.03,19.03,0,0,0,6.232,14.1,1.838,1.838,0,0,1-.4.25,12.483,12.483,0,0,1-3.054.806,68.989,68.989,0,0,1-10.466.67,67.956,67.956,0,0,1-10.364-.7,11.5,11.5,0,0,1-2.918-.795,1.4,1.4,0,0,1-.272-.182A19.02,19.02,0,0,0,122.845,45.7a7.812,7.812,0,0,1,1.862-5.335,7.209,7.209,0,0,1,5.562-2.2Zm-2.043,24.793q.933.02,1.873.023,1.135,0,2.259-.023a2.435,2.435,0,0,1-4.132,0Z" transform="translate(-115.053 -33.588)" fill="#8d8d8d" fill-rule="evenodd"/>
</svg>
