<svg id="noun-catalog-4360222" xmlns="http://www.w3.org/2000/svg" width="25.751" height="25.744" viewBox="0 0 25.751 25.744">
  <path id="Path_7" data-name="Path 7" d="M102.349,45.207h-.491a3.9,3.9,0,0,1-3.924-3.869V31.873A3.906,3.906,0,0,1,101.864,28h9.546a3.906,3.906,0,0,1,3.93,3.869v.343c2.753,0,4.39,1.465,4.39,4.328a3.892,3.892,0,0,1,3.955,3.869v9.435a3.9,3.9,0,0,1-3.9,3.9h-9.638a3.9,3.9,0,0,1-3.869-3.9v-.46c-2.238-.2-3.93-1.465-3.93-3.844,0,0,0-.337,0-.337Zm15.916-8.657v-.46a2.428,2.428,0,0,0-2.44-2.409h-9.576a2.434,2.434,0,0,0-2.465,2.409v9.46c0,1.551,1.061,2.238,2.5,2.379v-7.51a3.888,3.888,0,0,1,3.869-3.869h8.117Zm1.521,1.434h-9.638a2.432,2.432,0,0,0-2.409,2.44V49.86a2.432,2.432,0,0,0,2.409,2.44h9.632a2.439,2.439,0,0,0,2.44-2.44V40.419a2.428,2.428,0,0,0-2.434-2.434Zm-5.91-5.763v-.343a2.434,2.434,0,0,0-2.465-2.409h-9.546A2.434,2.434,0,0,0,99.4,31.878v9.46a2.434,2.434,0,0,0,2.465,2.409h.491V36.09a3.9,3.9,0,0,1,3.9-3.869h7.621Z" transform="translate(-97.935 -28.004)" fill="#303131"/>
</svg>
