<svg xmlns="http://www.w3.org/2000/svg" width="29.268" height="28.653" viewBox="0 0 29.268 28.653">
  <path id="noun-home-5027874" d="M120.831,36.77a2.09,2.09,0,0,0-2.4,0l-11.15,7.805a2.09,2.09,0,0,0-.892,1.713v13.88a2.091,2.091,0,0,0,2.091,2.091h6.272V53.2a2.091,2.091,0,0,1,2.091-2.091h5.575A2.091,2.091,0,0,1,124.51,53.2v9.059h6.272a2.091,2.091,0,0,0,2.091-2.091V46.288a2.09,2.09,0,0,0-.892-1.713Zm.8-1.142-.4.571.4-.571,11.15,7.805a3.484,3.484,0,0,1,1.486,2.854v13.88a3.484,3.484,0,0,1-3.484,3.484h-6.969a.7.7,0,0,1-.7-.7V53.2a.7.7,0,0,0-.7-.7h-5.575a.7.7,0,0,0-.7.7v9.756a.7.7,0,0,1-.7.7h-6.969A3.484,3.484,0,0,1,105,60.168V46.288a3.484,3.484,0,0,1,1.486-2.854l11.149-7.805a3.485,3.485,0,0,1,4,0Z" transform="translate(-104.998 -34.999)" fill="#303131" fill-rule="evenodd"/>
</svg>
