<?xml version="1.0" encoding="UTF-8"?>
<svg width="500pt" height="500pt" version="1.1" viewBox="0 0 700 500" xmlns="http://www.w3.org/2000/svg" xmlns:xlink="http://www.w3.org/1999/xlink">
 <g>
  <path d="m312.56 235.66h121.22c4.5352 0 8.2227-5.0195 8.2227-11.199 0-6.1836-3.6797-11.199-8.2227-11.199h-121.22c-4.5352 0-8.2148 5.0195-8.2148 11.199 0 6.1836 3.6719 11.199 8.2148 11.199z"/>
  <path d="m430.79 269.27h-165.2c-6.1836 0-11.199 5.0195-11.199 11.199 0 6.1836 5.0195 11.199 11.199 11.199h165.2c6.1836 0 11.199-5.0195 11.199-11.199 0-6.1836-5.0195-11.199-11.199-11.199z"/>
  <path d="m433.77 324.34h-121.21c-4.5352 0-8.2148 5.0195-8.2148 11.199 0 6.1836 3.6797 11.199 8.2148 11.199h121.22c4.5352 0 8.2227-5.0195 8.2227-11.199-0.003906-6.1836-3.6875-11.199-8.2305-11.199z"/>
 </g>
</svg>
