<svg id="noun-plus-sign-212203" xmlns="http://www.w3.org/2000/svg" width="31.226" height="31.226" viewBox="0 0 31.226 31.226">
  <path id="Path_1994" data-name="Path 1994" d="M85.289,14.412V9.606a1.441,1.441,0,0,0-2.882,0v4.806H77.6a1.441,1.441,0,0,0,0,2.882h4.806V22.1a1.441,1.441,0,0,0,2.882,0V17.294h4.806a1.441,1.441,0,0,0,0-2.882Zm-1.2,16.814A15.613,15.613,0,1,0,68.475,15.613,15.613,15.613,0,0,0,84.088,31.226Zm0-2.882A12.731,12.731,0,1,0,71.357,15.613,12.73,12.73,0,0,0,84.088,28.344Z" transform="translate(-68.475)" fill="#8d8d8d" fill-rule="evenodd"/>
</svg>
