<svg id="noun-sell-4995437" xmlns="http://www.w3.org/2000/svg" width="28.863" height="28.653" viewBox="0 0 28.863 28.653">
  <path id="Path_6" data-name="Path 6" d="M97.055,22.678l-.467-4.983a2.052,2.052,0,0,0-2.051-1.864h-1.4v3.558a.677.677,0,1,1-1.353,0V15.83H83.2v3.558a.677.677,0,1,1-1.353,0V15.83h-1.4a2.054,2.054,0,0,0-2.052,1.864L77.21,30.306a2.059,2.059,0,0,0,.089.85,2.168,2.168,0,0,0,1.126,1.234,2.054,2.054,0,0,0,.836.167H91.57a6.916,6.916,0,0,1,5.483-9.881Zm.22,2.94a.677.677,0,0,1,1.051,0l2.267,2.455a.675.675,0,1,1-.994.914l-1.122-1.215v5.286a.677.677,0,1,1-1.353,0V27.772L96,28.987a.675.675,0,1,1-.994-.914l2.268-2.455Zm-3.969,7.211a5.562,5.562,0,1,0-1.068-3.277,5.588,5.588,0,0,0,1.068,3.277Zm-.874,1.082H79.261a3.387,3.387,0,0,1-3.393-3.727l1.181-12.612a3.4,3.4,0,0,1,3.393-3.094h1.4V13.461a5.648,5.648,0,0,1,11.3,0v1.017h1.4a3.4,3.4,0,0,1,3.393,3.094l.477,5.091a6.915,6.915,0,1,1-5.5,11.777,6.974,6.974,0,0,1-.478-.531ZM83.2,14.478h8.589V13.461a4.294,4.294,0,0,0-8.589,0Z" transform="translate(-75.852 -7.813)" fill="#303131"/>
</svg>
