<svg xmlns="http://www.w3.org/2000/svg" width="25.028" height="26.335" viewBox="0 0 25.028 26.335">
  <path id="noun-setting-5028282" d="M131.552,61.326H127.79a.94.94,0,0,1-.941-.715l-.677-2.709a10.4,10.4,0,0,1-3.226-1.881l-2.68.781a.94.94,0,0,1-1.072-.433l-1.881-3.254h0a.94.94,0,0,1,.132-1.195l2.06-1.881a9.912,9.912,0,0,1,0-3.762l-2.06-1.881a.941.941,0,0,1-.16-1.148L119.165,40h0a.94.94,0,0,1,1.1-.48l2.69.771h0a10.408,10.408,0,0,1,3.226-1.881l.668-2.7a.94.94,0,0,1,.941-.715h3.762a.94.94,0,0,1,.941.715l.677,2.709A10.4,10.4,0,0,1,136.4,40.3l2.68-.781a.94.94,0,0,1,1.072.433l1.881,3.254h0A.94.94,0,0,1,141.9,44.4l-2.06,1.881a9.912,9.912,0,0,1,0,3.762l2.06,1.881a.941.941,0,0,1,.16,1.148l-1.881,3.254h0a.941.941,0,0,1-1.072.433l-2.69-.771h0a10.407,10.407,0,0,1-3.226,1.881l-.7,2.746a.94.94,0,0,1-.941.715Zm-3.029-1.881h2.295l.63-2.5a.941.941,0,0,1,.64-.677,8.465,8.465,0,0,0,3.4-1.966.941.941,0,0,1,.941-.216l2.483.715,1.11-1.994-1.881-1.825a.94.94,0,0,1-.263-.941,8.183,8.183,0,0,0,0-3.913.94.94,0,0,1,.263-.79l1.881-1.8-1.148-2.022-2.483.715a.941.941,0,0,1-.941-.216,8.464,8.464,0,0,0-3.4-1.966.94.94,0,0,1-.639-.677l-.592-2.5h-2.3l-.63,2.5h0a.941.941,0,0,1-.64.677,8.465,8.465,0,0,0-3.4,1.966.941.941,0,0,1-.941.216l-2.445-.715-1.148,1.994,1.881,1.825a.94.94,0,0,1,.263.941,8.183,8.183,0,0,0,0,3.913.94.94,0,0,1-.263.79l-1.881,1.825,1.148,1.985,2.483-.715a.941.941,0,0,1,.941.216,8.466,8.466,0,0,0,3.4,1.966.94.94,0,0,1,.639.677Zm1.148-6.584A4.7,4.7,0,1,1,133,51.484,4.7,4.7,0,0,1,129.671,52.862Zm0-7.524a2.821,2.821,0,1,0,2,.826A2.822,2.822,0,0,0,129.671,45.338Z" transform="translate(-117.157 -34.991)" fill="#303131"/>
</svg>
